<?xml version="1.0" encoding="UTF-8"?>
<svg width="282px" height="180px" viewBox="0 0 282 180" version="1.1" xmlns="http://www.w3.org/2000/svg" xmlns:xlink="http://www.w3.org/1999/xlink">
    <!-- Generator: Sketch 51.2 (57519) - http://www.bohemiancoding.com/sketch -->
    <title>Group</title>
    <desc>Created with Sketch.</desc>
    <defs>
        <path d="M2,0 L280,0 C281.104569,-2.02906125e-16 282,0.8954305 282,2 L282,180 L0,180 L0,2 C-1.3527075e-16,0.8954305 0.8954305,2.02906125e-16 2,0 Z" id="path-1"></path>
        <polygon id="path-3" points="0.079861375 0.207950537 48.7603872 0.207950537 48.7603872 79.4644271 0.079861375 79.4644271"></polygon>
        <polygon id="path-5" points="0.108105526 0.481963191 26.9454563 0.481963191 26.9454563 41.8382582 0.108105526 41.8382582"></polygon>
    </defs>
    <g id="Page-1" stroke="none" stroke-width="1" fill="none" fill-rule="evenodd">
        <g id="home-未加载" transform="translate(-83.000000, -190.000000)">
            <g id="Group-21" transform="translate(83.000000, 190.000000)">
                <g id="Group-10">
                    <g id="Group">
                        <g id="Bitmap">
                            <mask id="mask-2" fill="white">
                                <use xlink:href="#path-1"></use>
                            </mask>
                            <use id="Mask" fill="#F3F7FB" xlink:href="#path-1"></use>
                        </g>
                        <g id="Group-38-Copy-2" opacity="0.243024554" transform="translate(97.000000, 42.000000)">
                            <g id="Group-28">
                                <g id="Group-12-Copy-5" transform="translate(43.970503, 64.662770) rotate(86.000000) translate(-43.970503, -64.662770) translate(15.970503, 22.662770)">
                                    <path d="M9.50721879,46.7866443 C9.50721879,46.7866443 35.580947,71.6888818 23.3410072,81.0279755 C17.8647069,85.2055145 12.4360859,83.9256904 8.77840768,82.0542495 C4.24206938,79.7300407 1.32001363,75.4921326 0.386862963,70.9282316 C-2.25592872,57.9066252 9.50721879,46.7866443 9.50721879,46.7866443 Z M34.0426711,79.4644271 C34.0426711,79.4644271 35.2749859,71.2566093 28.9947937,62.1005741 C22.7146015,52.9445389 20.0390947,50.4924609 20.0390947,50.4924609 C20.0390947,50.4924609 -1.53629789,27.7473234 2.08815719,13.4999045 C5.7257921,-0.747514348 20.7573958,-1.78632573 31.4660131,2.27228617 C31.4660131,2.27228617 21.9963004,5.57594794 22.4048754,14.7259435 C22.8200402,23.8819787 30.1282597,30.6765299 35.6901507,36.245042 C41.2520418,41.8135542 52.1649465,49.930778 50.1023021,61.0617627 C48.6854697,68.7260164 41.2784015,77.5861111 34.0426711,79.4644271 Z M33.5845873,9.42287441 C38.4095043,8.45305584 44.6443837,11.4408199 51.1638427,23.5003029 C59.04799,38.0897474 54.0937186,53.5225124 54.197202,50.137183 C54.2942178,46.7458299 48.6349652,40.8184916 36.2040127,28.9577912 C28.0611568,21.193219 28.2487206,15.6875409 29.3417648,12.8082038 C30.0144074,11.0312071 31.6054658,9.82043978 33.5845873,9.42287441 Z" id="Combined-Shape" fill="#CDDBE9"></path>
                                    <g id="Group-5" transform="translate(1.597907, -0.000000)">
                                        <mask id="mask-4" fill="white">
                                            <use xlink:href="#path-3"></use>
                                        </mask>
                                        <g id="Clip-4"></g>
                                    </g>
                                    <g id="Group-8" transform="translate(28.691460, 8.771108)">
                                        <mask id="mask-6" fill="white">
                                            <use xlink:href="#path-5"></use>
                                        </mask>
                                        <g id="Clip-7"></g>
                                    </g>
                                </g>
                                <g id="Group-3" transform="translate(45.500392, 19.500000) scale(-1, 1) translate(-45.500392, -19.500000) translate(22.000392, 0.000000)">
                                    <path d="M13.7710292,8.84576012 C16.6126756,10.1510661 20.6051566,11.9142941 21.5404665,13.7851891 C22.4469815,15.5984859 21.809916,12.7507133 19.6292701,5.24187135 C23.3393485,3.34425104 27.3547787,1.95311954 31.5555777,1.13704797 C36.1202059,0.249517384 41.5452491,-0.200685892 46.5301014,0.950157946 C46.5301014,0.950157946 34.8624794,7.90822065 34.9110573,22.9421466 C35.9217587,28.6393827 38.2735731,33.790272 43.8320362,38.6851652 C40.2259254,36.9393454 35.0386585,36.1984122 28.2702356,36.4623656 C18.1176013,36.8582956 15.4157204,35.9487505 11.8645951,34.7297128 C7.80244813,33.3352505 4.00145789,30.8594768 0.461624331,27.3023915 C0.461624331,27.3023915 1.34336441,19.5329019 10.810102,11.2187888 C11.7597912,10.3850129 12.7479212,9.59334361 13.7710292,8.84576012 Z" id="Combined-Shape" fill="#CDDBE9"></path>
                                    <path d="" id="Path-23" stroke="#979797"></path>
                                </g>
                                <path d="M7.82728356,28.12769 C9.22169762,27.1484496 12.0995129,26.7168186 16.4607294,26.8327971 C15.0686599,31.5736606 12.8827394,33.8577441 9.90296803,33.6850476 C6.05911777,32.8421841 5.73566248,29.5965507 7.82728356,28.12769 Z" id="Path-22" fill="#CDDBE9"></path>
                                <path d="M15.8935785,20.8222851 C16.5479571,21.1287209 17.1870626,22.0074078 17.8108951,23.4583458 C15.4731238,23.7355229 14.1120394,23.3711995 13.7276419,22.3653756 C13.5093365,20.9718022 14.9120106,20.3626315 15.8935785,20.8222851 Z" id="Path-22-Copy-2" fill="#CDDBE9"></path>
                            </g>
                        </g>
                    </g>
                </g>
            </g>
        </g>
    </g>
</svg>